<?xml version="1.0" standalone="no"?><!DOCTYPE svg PUBLIC "-//W3C//DTD SVG 1.1//EN" "http://www.w3.org/Graphics/SVG/1.1/DTD/svg11.dtd"><svg t="1692179089273" class="icon" viewBox="0 0 1024 1024" version="1.1" xmlns="http://www.w3.org/2000/svg" p-id="14709" xmlns:xlink="http://www.w3.org/1999/xlink" width="200" height="200"><path d="M379.665067 536.064a924.398933 924.398933 0 0 1-92.3648-18.944c-56.251733 74.069333-63.010133 135.5776-22.528 192.9216 11.093333-15.906133 25.463467-30.72 42.666666-43.758933 12.014933-9.079467 34.6112 61.201067 22.1184 73.1136-16.110933 15.325867-26.5216 31.744-28.4672 45.6704-1.9456 13.960533 8.874667 34.133333 22.8352 34.133333h376.149334c13.960533 0 24.7808-20.1728 22.8352-34.133333-1.9456-13.755733-12.117333-29.969067-27.886934-45.124267-12.629333-12.117333 11.434667-81.578667 24.098134-71.68 16.0768 12.561067 29.5936 26.658133 40.072533 41.7792 40.516267-57.344 33.792-118.852267-22.528-192.9216a886.784 886.784 0 0 1-288.9728 26.624l-3.9936 106.052267-68.1984-2.525867 4.164267-111.2064z m15.701333-66.6624l47.104 5.461333c90.385067 7.850667 180.701867 0.375467 271.121067-22.3232C705.877333 320.375467 632.285867 204.8 512 204.8c-120.285867 0-193.8432 115.575467-201.591467 247.739733 28.330667 7.133867 56.661333 12.731733 84.992 16.861867zM700.074667 887.466667H323.959467C273.2032 887.466667 239.616 853.333333 238.933333 785.066667c-92.603733-94.1056-90.4192-206.9504 2.730667-322.6624C246.510933 293.137067 342.6304 136.533333 512 136.533333c169.301333 0 265.4208 156.603733 270.301867 325.870934 93.115733 115.712 95.300267 228.5568 2.730666 322.6624-0.682667 68.266667-34.269867 102.4-84.992 102.4z" fill="#000000" p-id="14710"></path></svg>